# Blender 4.4.0
# www.blender.org
mtllib PortalFrame.mtl
o Cube.012
v 5.000000 10.000000 -1.000000
v 5.000000 8.000000 -1.000000
v 5.000000 10.000000 1.000000
v 5.000000 8.000000 1.000000
v 3.000000 10.000000 -1.000000
v 3.000000 8.000000 -1.000000
v 3.000000 10.000000 1.000000
v 3.000000 8.000000 1.000000
v 1.000000 2.000000 -1.000000
v 1.000000 0.000000 -1.000000
v 1.000000 2.000000 1.000000
v 1.000000 0.000000 1.000000
v -1.000000 2.000000 -1.000000
v -1.000000 0.000000 -1.000000
v -1.000000 2.000000 1.000000
v -1.000000 0.000000 1.000000
v 3.000000 2.000000 -1.000000
v 3.000000 0.000000 -1.000000
v 3.000000 2.000000 1.000000
v 3.000000 0.000000 1.000000
v 1.000000 2.000000 -1.000000
v 1.000000 0.000000 -1.000000
v 1.000000 2.000000 1.000000
v 1.000000 0.000000 1.000000
v 5.000000 2.000000 -1.000000
v 5.000000 0.000000 -1.000000
v 5.000000 2.000000 1.000000
v 5.000000 0.000000 1.000000
v 3.000000 2.000000 -1.000000
v 3.000000 0.000000 -1.000000
v 3.000000 2.000000 1.000000
v 3.000000 0.000000 1.000000
v -1.000000 2.000000 -1.000000
v -1.000000 0.000000 -1.000000
v -1.000000 2.000000 1.000000
v -1.000000 0.000000 1.000000
v -3.000000 2.000000 -1.000000
v -3.000000 0.000000 -1.000000
v -3.000000 2.000000 1.000000
v -3.000000 0.000000 1.000000
v -1.000000 4.000000 -1.000000
v -1.000000 2.000000 -1.000000
v -1.000000 4.000000 1.000000
v -1.000000 2.000000 1.000000
v -3.000000 4.000000 -1.000000
v -3.000000 2.000000 -1.000000
v -3.000000 4.000000 1.000000
v -3.000000 2.000000 1.000000
v -1.000000 6.000000 -1.000000
v -1.000000 4.000000 -1.000000
v -1.000000 6.000000 1.000000
v -1.000000 4.000000 1.000000
v -3.000000 6.000000 -1.000000
v -3.000000 4.000000 -1.000000
v -3.000000 6.000000 1.000000
v -3.000000 4.000000 1.000000
v 5.000000 4.000000 -1.000000
v 5.000000 2.000000 -1.000000
v 5.000000 4.000000 1.000000
v 5.000000 2.000000 1.000000
v 3.000000 4.000000 -1.000000
v 3.000000 2.000000 -1.000000
v 3.000000 4.000000 1.000000
v 3.000000 2.000000 1.000000
v 5.000000 6.000000 -1.000000
v 5.000000 4.000000 -1.000000
v 5.000000 6.000000 1.000000
v 5.000000 4.000000 1.000000
v 3.000000 6.000000 -1.000000
v 3.000000 4.000000 -1.000000
v 3.000000 6.000000 1.000000
v 3.000000 4.000000 1.000000
v 5.000000 8.000000 -1.000000
v 5.000000 6.000000 -1.000000
v 5.000000 8.000000 1.000000
v 5.000000 6.000000 1.000000
v 3.000000 8.000000 -1.000000
v 3.000000 6.000000 -1.000000
v 3.000000 8.000000 1.000000
v 3.000000 6.000000 1.000000
v -1.000000 8.000000 -1.000000
v -1.000000 6.000000 -1.000000
v -1.000000 8.000000 1.000000
v -1.000000 6.000000 1.000000
v -3.000000 8.000000 -1.000000
v -3.000000 6.000000 -1.000000
v -3.000000 8.000000 1.000000
v -3.000000 6.000000 1.000000
v 1.000000 10.000000 -1.000000
v 1.000000 8.000000 -1.000000
v 1.000000 10.000000 1.000000
v 1.000000 8.000000 1.000000
v -1.000000 10.000000 -1.000000
v -1.000000 8.000000 -1.000000
v -1.000000 10.000000 1.000000
v -1.000000 8.000000 1.000000
v 3.000000 10.000000 -1.000000
v 3.000000 8.000000 -1.000000
v 3.000000 10.000000 1.000000
v 3.000000 8.000000 1.000000
v 1.000000 10.000000 -1.000000
v 1.000000 8.000000 -1.000000
v 1.000000 10.000000 1.000000
v 1.000000 8.000000 1.000000
v -1.000000 10.000000 -1.000000
v -1.000000 8.000000 -1.000000
v -1.000000 10.000000 1.000000
v -1.000000 8.000000 1.000000
v -3.000000 10.000000 -1.000000
v -3.000000 8.000000 -1.000000
v -3.000000 10.000000 1.000000
v -3.000000 8.000000 1.000000
vn -0.0000 1.0000 -0.0000
vn -0.0000 -0.0000 1.0000
vn -1.0000 -0.0000 -0.0000
vn -0.0000 -1.0000 -0.0000
vn 1.0000 -0.0000 -0.0000
vn -0.0000 -0.0000 -1.0000
vt 0.625000 0.500000
vt 0.875000 0.500000
vt 0.875000 0.750000
vt 0.625000 0.750000
vt 0.375000 0.750000
vt 0.625000 1.000000
vt 0.375000 1.000000
vt 0.375000 0.000000
vt 0.625000 0.000000
vt 0.625000 0.250000
vt 0.375000 0.250000
vt 0.125000 0.500000
vt 0.375000 0.500000
vt 0.125000 0.750000
s 0
usemtl Material
f 1/1/1 5/2/1 7/3/1 3/4/1
f 4/5/2 3/4/2 7/6/2 8/7/2
f 8/8/3 7/9/3 5/10/3 6/11/3
f 6/12/4 2/13/4 4/5/4 8/14/4
f 2/13/5 1/1/5 3/4/5 4/5/5
f 6/11/6 5/10/6 1/1/6 2/13/6
f 9/1/1 13/2/1 15/3/1 11/4/1
f 12/5/2 11/4/2 15/6/2 16/7/2
f 16/8/3 15/9/3 13/10/3 14/11/3
f 14/12/4 10/13/4 12/5/4 16/14/4
f 10/13/5 9/1/5 11/4/5 12/5/5
f 14/11/6 13/10/6 9/1/6 10/13/6
f 17/1/1 21/2/1 23/3/1 19/4/1
f 20/5/2 19/4/2 23/6/2 24/7/2
f 24/8/3 23/9/3 21/10/3 22/11/3
f 22/12/4 18/13/4 20/5/4 24/14/4
f 18/13/5 17/1/5 19/4/5 20/5/5
f 22/11/6 21/10/6 17/1/6 18/13/6
f 25/1/1 29/2/1 31/3/1 27/4/1
f 28/5/2 27/4/2 31/6/2 32/7/2
f 32/8/3 31/9/3 29/10/3 30/11/3
f 30/12/4 26/13/4 28/5/4 32/14/4
f 26/13/5 25/1/5 27/4/5 28/5/5
f 30/11/6 29/10/6 25/1/6 26/13/6
f 33/1/1 37/2/1 39/3/1 35/4/1
f 36/5/2 35/4/2 39/6/2 40/7/2
f 40/8/3 39/9/3 37/10/3 38/11/3
f 38/12/4 34/13/4 36/5/4 40/14/4
f 34/13/5 33/1/5 35/4/5 36/5/5
f 38/11/6 37/10/6 33/1/6 34/13/6
f 41/1/1 45/2/1 47/3/1 43/4/1
f 44/5/2 43/4/2 47/6/2 48/7/2
f 48/8/3 47/9/3 45/10/3 46/11/3
f 46/12/4 42/13/4 44/5/4 48/14/4
f 42/13/5 41/1/5 43/4/5 44/5/5
f 46/11/6 45/10/6 41/1/6 42/13/6
f 49/1/1 53/2/1 55/3/1 51/4/1
f 52/5/2 51/4/2 55/6/2 56/7/2
f 56/8/3 55/9/3 53/10/3 54/11/3
f 54/12/4 50/13/4 52/5/4 56/14/4
f 50/13/5 49/1/5 51/4/5 52/5/5
f 54/11/6 53/10/6 49/1/6 50/13/6
f 57/1/1 61/2/1 63/3/1 59/4/1
f 60/5/2 59/4/2 63/6/2 64/7/2
f 64/8/3 63/9/3 61/10/3 62/11/3
f 62/12/4 58/13/4 60/5/4 64/14/4
f 58/13/5 57/1/5 59/4/5 60/5/5
f 62/11/6 61/10/6 57/1/6 58/13/6
f 65/1/1 69/2/1 71/3/1 67/4/1
f 68/5/2 67/4/2 71/6/2 72/7/2
f 72/8/3 71/9/3 69/10/3 70/11/3
f 70/12/4 66/13/4 68/5/4 72/14/4
f 66/13/5 65/1/5 67/4/5 68/5/5
f 70/11/6 69/10/6 65/1/6 66/13/6
f 73/1/1 77/2/1 79/3/1 75/4/1
f 76/5/2 75/4/2 79/6/2 80/7/2
f 80/8/3 79/9/3 77/10/3 78/11/3
f 78/12/4 74/13/4 76/5/4 80/14/4
f 74/13/5 73/1/5 75/4/5 76/5/5
f 78/11/6 77/10/6 73/1/6 74/13/6
f 81/1/1 85/2/1 87/3/1 83/4/1
f 84/5/2 83/4/2 87/6/2 88/7/2
f 88/8/3 87/9/3 85/10/3 86/11/3
f 86/12/4 82/13/4 84/5/4 88/14/4
f 82/13/5 81/1/5 83/4/5 84/5/5
f 86/11/6 85/10/6 81/1/6 82/13/6
f 89/1/1 93/2/1 95/3/1 91/4/1
f 92/5/2 91/4/2 95/6/2 96/7/2
f 96/8/3 95/9/3 93/10/3 94/11/3
f 94/12/4 90/13/4 92/5/4 96/14/4
f 90/13/5 89/1/5 91/4/5 92/5/5
f 94/11/6 93/10/6 89/1/6 90/13/6
f 97/1/1 101/2/1 103/3/1 99/4/1
f 100/5/2 99/4/2 103/6/2 104/7/2
f 104/8/3 103/9/3 101/10/3 102/11/3
f 102/12/4 98/13/4 100/5/4 104/14/4
f 98/13/5 97/1/5 99/4/5 100/5/5
f 102/11/6 101/10/6 97/1/6 98/13/6
f 105/1/1 109/2/1 111/3/1 107/4/1
f 108/5/2 107/4/2 111/6/2 112/7/2
f 112/8/3 111/9/3 109/10/3 110/11/3
f 110/12/4 106/13/4 108/5/4 112/14/4
f 106/13/5 105/1/5 107/4/5 108/5/5
f 110/11/6 109/10/6 105/1/6 106/13/6
